<?xml version="1.0" ?><svg height="612" id="svg3117" version="1.0" width="612" xmlns="http://www.w3.org/2000/svg" xmlns:cc="http://creativecommons.org/ns#" xmlns:dc="http://purl.org/dc/elements/1.1/" xmlns:inkscape="http://www.inkscape.org/namespaces/inkscape" xmlns:rdf="http://www.w3.org/1999/02/22-rdf-syntax-ns#" xmlns:sodipodi="http://sodipodi.sourceforge.net/DTD/sodipodi-0.dtd" xmlns:svg="http://www.w3.org/2000/svg"><defs id="defs3119"><marker id="ArrowEnd" markerHeight="3" markerUnits="strokeWidth" markerWidth="4" orient="auto" refX="0" refY="5" viewBox="0 0 10 10"><path d="M 0,0 L 10,5 L 0,10 L 0,0 z" id="path3122"/></marker><marker id="ArrowStart" markerHeight="3" markerUnits="strokeWidth" markerWidth="4" orient="auto" refX="10" refY="5" viewBox="0 0 10 10"><path d="M 10,0 L 0,5 L 10,10 L 10,0 z" id="path3125"/></marker></defs><g id="g3127" transform="translate(-8.19e-2,-0.5853944)"><path d="M 82.4318,17.9239 C 41.0968,17.9239 17.8608,39.2949 17.8608,82.9599 L 17.8608,533.082 C 17.8608,573.925 38.7518,595.31 80.0528,595.31 L 532.077,595.31 C 573.38,595.31 594.303,574.99 594.303,533.082 L 594.303,82.9599 C 594.303,40.3599 573.38,17.9239 530.78,17.9239 C 530.78,17.9239 82.2888,17.7819 82.4318,17.9239 z" id="path3129" style="fill:#000000;stroke:#000000;stroke-width:3.40799999"/><path d="M 281.164,98.6359 C 281.223,64.6354 332.473,64.6352 332.439,99.5939 L 332.439,242.285 L 532.203,362.35 L 532.203,415.067 L 333.398,349.636 L 333.398,456.283 L 379.406,492.227 L 379.406,533.921 L 308.479,511.876 L 237.552,533.921 L 237.552,492.227 L 283.081,456.283 L 283.081,349.636 L 84.2538,415.067 L 84.2538,362.35 L 281.164,242.285 L 281.164,98.6359 z" id="path3131" style="fill:#ffffff;stroke:none"/></g></svg>